<svg width="32" height="22" viewBox="0 0 32 22" fill="none" xmlns="http://www.w3.org/2000/svg">
<path d="M0 0H32L30.3349 2.96346H2.24626L0 0Z" style="fill-opacity:1;"/>
<path d="M11.8624 1.18555L15.6176 2.40182L8.23195 20.9756L4.28418 20.8572L11.8624 1.18555Z" style="fill-opacity:1;"/>
<path d="M27.7275 7.35627L30.3349 2.96338H25.4403L23.1002 7.77019C22.9327 8.11418 22.5836 8.33247 22.2011 8.33247H14.5394L13.3511 11.2611H17.5986H22.6826C24.5735 11.2611 26.3026 10.1944 27.151 8.50447L27.7275 7.35627Z" style="fill-opacity:1;"/>
<g filter="url(#filter0_d_135_7)">
<path d="M14.6831 4.74145L15.3491 2.96338H25.4463L24.5643 4.74145H14.6831Z" fill="url(#paint0_linear_135_7)" style=""/>
</g>
<defs>
<filter id="filter0_d_135_7" x="10.6831" y="2.96338" width="18.7632" height="9.77783" filterUnits="userSpaceOnUse" color-interpolation-filters="sRGB">
<feFlood flood-opacity="0" result="BackgroundImageFix"/>
<feColorMatrix in="SourceAlpha" type="matrix" values="0 0 0 0 0 0 0 0 0 0 0 0 0 0 0 0 0 0 127 0" result="hardAlpha"/>
<feOffset dy="4"/>
<feGaussianBlur stdDeviation="2"/>
<feComposite in2="hardAlpha" operator="out"/>
<feColorMatrix type="matrix" values="0 0 0 0 0 0 0 0 0 0 0 0 0 0 0 0 0 0 0.25 0"/>
<feBlend mode="normal" in2="BackgroundImageFix" result="effect1_dropShadow_135_7"/>
<feBlend mode="normal" in="SourceGraphic" in2="effect1_dropShadow_135_7" result="shape"/>
</filter>
<linearGradient id="paint0_linear_135_7" x1="14.6831" y1="3.85242" x2="25.4463" y2="3.85242" gradientUnits="userSpaceOnUse">
<stop stop-color="#56B7E7" style="stop-color:#56B7E7;stop-color:color(display-p3 0.3373 0.7176 0.9059);stop-opacity:1;"/>
<stop offset="1" stop-color="#449AC5" style="stop-color:#449AC5;stop-color:color(display-p3 0.2666 0.6039 0.7708);stop-opacity:1;"/>
</linearGradient>
</defs>
</svg>
